<svg version="1.1" xmlns="http://www.w3.org/2000/svg" viewBox="0 0 961 426" width="1922" height="852">
  <!-- svg-source:excalidraw -->
  
  <defs>
    <style class="style-fonts">
      @font-face {
        font-family: "Virgil";
        src: url("https://excalidraw.com/Virgil.woff2");
      }
      @font-face {
        font-family: "Cascadia";
        src: url("https://excalidraw.com/Cascadia.woff2");
      }
    </style>
    
  </defs>
  <rect x="0" y="0" width="961" height="426" fill="#ffffff"></rect><g stroke-linecap="round" transform="translate(148.5 171) rotate(0 71.5 45.5)"><path d="M22.75 0 M22.75 0 C44.61 1.93, 67.34 0.26, 120.25 0 M22.75 0 C47.15 1.48, 72.01 0.12, 120.25 0 M120.25 0 C136.69 -0.67, 141.58 9.41, 143 22.75 M120.25 0 C135.85 -1.94, 143.74 9.88, 143 22.75 M143 22.75 C143.31 36.84, 144.43 49.58, 143 68.25 M143 22.75 C143.49 39.4, 143.12 58.1, 143 68.25 M143 68.25 C141.79 84.78, 136.33 89.83, 120.25 91 M143 68.25 C142.03 84.9, 133.59 88.85, 120.25 91 M120.25 91 C87.88 91.42, 55.21 91.19, 22.75 91 M120.25 91 C97.47 92.51, 74.46 90.65, 22.75 91 M22.75 91 C5.68 89.41, -0.55 83.46, 0 68.25 M22.75 91 C6.09 90.14, -0.83 83.34, 0 68.25 M0 68.25 C0.94 51.98, 0.43 38.15, 0 22.75 M0 68.25 C-0.47 57.19, 1.04 46.09, 0 22.75 M0 22.75 C1.52 8.52, 6.99 -0.35, 22.75 0 M0 22.75 C-1.17 7.77, 9.68 -0.81, 22.75 0" stroke="#1e1e1e" stroke-width="1" fill="none"></path></g><g transform="translate(183.78333282470703 204) rotate(0 36.21666717529297 12.5)"><text x="36.21666717529297" y="0" font-family="Virgil, Segoe UI Emoji" font-size="20px" fill="#1e1e1e" text-anchor="middle" style="white-space: pre;" direction="ltr" dominant-baseline="text-before-edge">scanner</text></g><g stroke-linecap="round" transform="translate(319 166.5) rotate(0 71.5 45.5)"><path d="M22.75 0 M22.75 0 C50.32 -1.91, 76.67 1.73, 120.25 0 M22.75 0 C54.33 -0.56, 84.66 -0.65, 120.25 0 M120.25 0 C135.56 -0.55, 142.28 6.72, 143 22.75 M120.25 0 C137.3 -1.69, 140.77 6.37, 143 22.75 M143 22.75 C144.06 31.52, 144.71 43.66, 143 68.25 M143 22.75 C142.74 38, 142.01 52.5, 143 68.25 M143 68.25 C141.61 81.6, 136 92.54, 120.25 91 M143 68.25 C143.62 84.35, 136.09 89.98, 120.25 91 M120.25 91 C87.12 91.18, 51.08 90.69, 22.75 91 M120.25 91 C86.68 91.26, 51.66 91.25, 22.75 91 M22.75 91 C5.93 92.76, 0.46 83.97, 0 68.25 M22.75 91 C9.39 89.76, -1.5 83.53, 0 68.25 M0 68.25 C-0.6 50.83, 0.27 31.6, 0 22.75 M0 68.25 C0.31 55.03, -1 41.76, 0 22.75 M0 22.75 C0.15 7.59, 7.54 -1.67, 22.75 0 M0 22.75 C2.19 9.21, 9.36 -1.1, 22.75 0" stroke="#1e1e1e" stroke-width="1" fill="none"></path></g><g transform="translate(359.3999996185303 199.5) rotate(0 31.100000381469727 12.5)"><text x="31.100000381469727" y="0" font-family="Virgil, Segoe UI Emoji" font-size="20px" fill="#1e1e1e" text-anchor="middle" style="white-space: pre;" direction="ltr" dominant-baseline="text-before-edge">parser</text></g><g stroke-linecap="round" transform="translate(500 164.5) rotate(0 71.5 45.5)"><path d="M22.75 0 M22.75 0 C46.48 -1.13, 71.03 -1.08, 120.25 0 M22.75 0 C41.46 -0.05, 60.95 0.52, 120.25 0 M120.25 0 C136.04 0.87, 144.37 6.81, 143 22.75 M120.25 0 C137.19 -1.56, 143.54 7.44, 143 22.75 M143 22.75 C145.24 38.1, 144.49 56.51, 143 68.25 M143 22.75 C142.74 36.6, 142.79 52.26, 143 68.25 M143 68.25 C144.34 82.26, 135.75 90.21, 120.25 91 M143 68.25 C140.86 83.06, 133.69 89.35, 120.25 91 M120.25 91 C89.31 90.53, 60.87 91.65, 22.75 91 M120.25 91 C96.87 90.88, 71.81 91.08, 22.75 91 M22.75 91 C6.23 91.9, -1.11 83.08, 0 68.25 M22.75 91 C9.46 91.71, 1.6 82.48, 0 68.25 M0 68.25 C-0.87 59.15, 0.84 45.3, 0 22.75 M0 68.25 C0.48 58.96, -0.16 47.27, 0 22.75 M0 22.75 C1.96 6.75, 7.97 1.24, 22.75 0 M0 22.75 C-0.67 5.81, 6.12 -1.12, 22.75 0" stroke="#1e1e1e" stroke-width="1" fill="none"></path></g><g transform="translate(515.7000007629395 197.5) rotate(0 55.79999923706055 12.5)"><text x="55.79999923706055" y="0" font-family="Virgil, Segoe UI Emoji" font-size="20px" fill="#1e1e1e" text-anchor="middle" style="white-space: pre;" direction="ltr" dominant-baseline="text-before-edge">typechecker</text></g><g stroke-linecap="round" transform="translate(683 160.5) rotate(0 71.5 45.5)"><path d="M22.75 0 M22.75 0 C51.51 -1.7, 81.17 0.12, 120.25 0 M22.75 0 C59.31 1.21, 97.15 1.21, 120.25 0 M120.25 0 C135.62 -0.11, 143.67 9.37, 143 22.75 M120.25 0 C135.94 -1.36, 144.85 8.25, 143 22.75 M143 22.75 C143.18 31.81, 144 41.63, 143 68.25 M143 22.75 C142.4 33.87, 142.67 47.14, 143 68.25 M143 68.25 C142.23 83.34, 136.94 92.67, 120.25 91 M143 68.25 C143.34 82.11, 135.27 90.87, 120.25 91 M120.25 91 C89.99 89.71, 62.88 89.78, 22.75 91 M120.25 91 C93.66 91.76, 68.11 91.86, 22.75 91 M22.75 91 C7.32 91.99, 0.63 81.82, 0 68.25 M22.75 91 C5.76 93.29, -0.77 84.91, 0 68.25 M0 68.25 C0.24 53.82, 1.61 44.11, 0 22.75 M0 68.25 C0.1 51.34, 0.67 35.26, 0 22.75 M0 22.75 C-0.34 5.85, 6.75 0.45, 22.75 0 M0 22.75 C-1 7.71, 6.78 -1.96, 22.75 0" stroke="#1e1e1e" stroke-width="1" fill="none"></path></g><g transform="translate(702.1166648864746 193.5) rotate(0 52.38333511352539 12.5)"><text x="52.38333511352539" y="0" font-family="Virgil, Segoe UI Emoji" font-size="20px" fill="#1e1e1e" text-anchor="middle" style="white-space: pre;" direction="ltr" dominant-baseline="text-before-edge">interpreter</text></g><g stroke-linecap="round" transform="translate(10 16.5) rotate(0 52.5 45.5)"><path d="M1.02 -1.04 C28.8 -1.97, 56.57 -0.55, 104.74 -0.45 M-0.09 0.13 C38.26 1.78, 76.78 1.03, 104.59 -0.67 M104.62 1.68 C107.43 30.14, 106.13 57.67, 105.28 90.78 M105.37 0.7 C105.7 21.07, 105.79 42.17, 105.96 91.99 M104.62 89.22 C81.01 91.72, 56.38 92.21, 1.08 92.69 M104.98 91.82 C77.64 90.58, 49.67 91.86, 0.23 91.56 M-0.97 91.12 C-0.51 73.41, -0.96 52.5, -0.09 -1.24 M0.09 91.69 C0.18 72.63, -1.03 53.6, -0.35 0.97" stroke="#1e1e1e" stroke-width="1" fill="none"></path></g><g transform="translate(25.416667938232422 37) rotate(0 37.08333206176758 25)"><text x="37.08333206176758" y="0" font-family="Virgil, Segoe UI Emoji" font-size="20px" fill="#1e1e1e" text-anchor="middle" style="white-space: pre;" direction="ltr" dominant-baseline="text-before-edge">program</text><text x="37.08333206176758" y="25" font-family="Virgil, Segoe UI Emoji" font-size="20px" fill="#1e1e1e" text-anchor="middle" style="white-space: pre;" direction="ltr" dominant-baseline="text-before-edge">text</text></g><g stroke-linecap="round"><g transform="translate(88.4012389363694 112) rotate(0 50.118392536946146 26.411025542765856)"><path d="M-1.48 -0.26 C40.97 18.97, 82.2 42.49, 101.2 53.08 M0.86 -0.2 C33.65 17, 66.37 35.83, 101.72 52.67" stroke="#1e1e1e" stroke-width="1" fill="none"></path></g><g transform="translate(88.4012389363694 112) rotate(0 50.118392536946146 26.411025542765856)"><path d="M70.43 48.98 C84.39 48.75, 97.27 52.89, 102.09 53.75 M72.78 49.03 C81.87 49.87, 90.94 52.53, 102.61 53.35" stroke="#1e1e1e" stroke-width="1" fill="none"></path></g><g transform="translate(88.4012389363694 112) rotate(0 50.118392536946146 26.411025542765856)"><path d="M79.62 30.63 C89.97 37.72, 99.18 49.17, 102.09 53.75 M81.96 30.68 C88.01 37.6, 94.04 46.36, 102.61 53.35" stroke="#1e1e1e" stroke-width="1" fill="none"></path></g></g><mask></mask><g stroke-linecap="round" transform="translate(256 24.5) rotate(0 52.5 26)"><path d="M-1.25 -1.94 C25.82 -0.37, 48.94 -0.3, 106.89 1.51 M-0.95 -0.68 C34.9 -0.76, 70.17 -0.64, 104.25 -0.53 M105.51 0.77 C104.9 18.83, 106.17 34.86, 106.41 50.32 M105.63 0.3 C105.72 18.79, 106.15 36.16, 105.69 52.16 M104.41 51.62 C77.34 53.3, 51.3 49.76, 0.84 53.64 M105.5 51.8 C62.61 51.11, 22.14 52.41, 0.1 52.07 M-0.99 53.51 C-0.37 38.62, 1.26 25.57, -1.08 -1.09 M-0.13 52.21 C0.16 35.89, 0.02 18.86, 0.93 0.02" stroke="#1e1e1e" stroke-width="1" fill="none"></path></g><g transform="translate(276.88333320617676 38) rotate(0 31.616666793823242 12.5)"><text x="31.616666793823242" y="0" font-family="Virgil, Segoe UI Emoji" font-size="20px" fill="#1e1e1e" text-anchor="middle" style="white-space: pre;" direction="ltr" dominant-baseline="text-before-edge">tokens</text></g><g stroke-linecap="round"><g transform="translate(244.28499356208295 166) rotate(0 21.905953459717807 -43.567693868651986)"><path d="M-1.14 -0.76 C10.83 -20.73, 20.51 -43.93, 44.95 -86.35 M-0.01 -0.24 C13.32 -25.76, 25.69 -52.23, 43.92 -86.89" stroke="#1e1e1e" stroke-width="1" fill="none"></path></g><g transform="translate(244.28499356208295 166) rotate(0 21.905953459717807 -43.567693868651986)"><path d="M39.01 -57.9 C41.05 -63.98, 40.76 -72.94, 45.75 -87.25 M40.15 -57.37 C41.7 -66.09, 42.35 -75.82, 44.73 -87.79" stroke="#1e1e1e" stroke-width="1" fill="none"></path></g><g transform="translate(244.28499356208295 166) rotate(0 21.905953459717807 -43.567693868651986)"><path d="M20.76 -67.28 C27.42 -70.83, 31.77 -77.4, 45.75 -87.25 M21.9 -66.76 C28.87 -72.72, 34.95 -79.65, 44.73 -87.79" stroke="#1e1e1e" stroke-width="1" fill="none"></path></g></g><mask></mask><g stroke-linecap="round"><g transform="translate(313.3694676445723 79) rotate(0 26.013923765591244 41.65763253904879)"><path d="M0.95 -0.11 C17.85 27.11, 35.4 56.49, 52.33 82.63 M-0.31 -0.86 C17.33 27.26, 33.1 55.16, 51.92 84.18" stroke="#1e1e1e" stroke-width="1" fill="none"></path></g><g transform="translate(313.3694676445723 79) rotate(0 26.013923765591244 41.65763253904879)"><path d="M29.18 65.66 C35.98 70.75, 43.86 78.26, 51.57 82.8 M27.92 64.91 C36.67 71.8, 43.17 78.72, 51.16 84.35" stroke="#1e1e1e" stroke-width="1" fill="none"></path></g><g transform="translate(313.3694676445723 79) rotate(0 26.013923765591244 41.65763253904879)"><path d="M46.55 54.74 C47.63 63.32, 49.72 74.47, 51.57 82.8 M45.3 53.99 C48.42 64.22, 49.37 74.63, 51.16 84.35" stroke="#1e1e1e" stroke-width="1" fill="none"></path></g></g><mask></mask><g stroke-linecap="round" transform="translate(414 19) rotate(0 52.5 30)"><path d="M1.33 -1.6 C31.91 -0.74, 65.6 1.33, 104.41 1.15 M0.03 -0.55 C25.93 0.79, 53.21 0.76, 105.1 -0.44 M105.94 -1.6 C105.12 20.87, 106.05 37.55, 103.33 60.58 M104.98 0.21 C104.78 19.37, 104.2 40.48, 105.68 59.99 M106.01 58.89 C82.73 60.51, 59.1 58.34, -0.41 59.6 M105.86 60.32 C69.48 61.33, 33.67 59.87, -0.2 60.13 M1.93 61.28 C1.07 35.46, -1.39 11.54, 1.84 -0.97 M0.2 59.67 C-0.18 47.05, 0.05 35.94, 0.65 -0.13" stroke="#1e1e1e" stroke-width="1" fill="none"></path></g><g transform="translate(434.70000076293945 24) rotate(0 31.799999237060547 25)"><text x="31.799999237060547" y="0" font-family="Virgil, Segoe UI Emoji" font-size="20px" fill="#1e1e1e" text-anchor="middle" style="white-space: pre;" direction="ltr" dominant-baseline="text-before-edge">parse </text><text x="31.799999237060547" y="25" font-family="Virgil, Segoe UI Emoji" font-size="20px" fill="#1e1e1e" text-anchor="middle" style="white-space: pre;" direction="ltr" dominant-baseline="text-before-edge">trees</text></g><g stroke-linecap="round"><g transform="translate(426.52731001356824 159) rotate(0 11.924599967268819 -38.759978075511754)"><path d="M1.46 -0.76 C10.75 -28.33, 20.24 -58.54, 21.73 -77.85 M-0.38 0.33 C7.7 -27.95, 16.1 -57.48, 24.23 -76.98" stroke="#1e1e1e" stroke-width="1" fill="none"></path></g><g transform="translate(426.52731001356824 159) rotate(0 11.924599967268819 -38.759978075511754)"><path d="M25.54 -47.74 C25.57 -57.23, 26.26 -69.48, 22.54 -77.33 M23.7 -46.65 C23.34 -57.53, 23.15 -69.51, 25.04 -76.46" stroke="#1e1e1e" stroke-width="1" fill="none"></path></g><g transform="translate(426.52731001356824 159) rotate(0 11.924599967268819 -38.759978075511754)"><path d="M6.29 -54.86 C13.54 -61.75, 21.51 -71.3, 22.54 -77.33 M4.45 -53.77 C11.23 -61.89, 18.14 -71.25, 25.04 -76.46" stroke="#1e1e1e" stroke-width="1" fill="none"></path></g></g><mask></mask><g stroke-linecap="round"><g transform="translate(490.6698204976042 85.5) rotate(0 23.865726179562955 36.82335854601115)"><path d="M0.84 -1.07 C19.59 27.48, 38.35 58.14, 46.05 73.65 M-0.6 0.42 C12.47 20.04, 26.44 40.95, 48.33 74.71" stroke="#1e1e1e" stroke-width="1" fill="none"></path></g><g transform="translate(490.6698204976042 85.5) rotate(0 23.865726179562955 36.82335854601115)"><path d="M25.18 55.64 C34.57 62.43, 44.37 71.31, 46.72 72.87 M23.74 57.12 C30.37 61.23, 37.97 66.7, 49 73.93" stroke="#1e1e1e" stroke-width="1" fill="none"></path></g><g transform="translate(490.6698204976042 85.5) rotate(0 23.865726179562955 36.82335854601115)"><path d="M42.37 44.43 C45.32 55.48, 48.61 68.62, 46.72 72.87 M40.93 45.92 C42.95 52.98, 45.95 61.46, 49 73.93" stroke="#1e1e1e" stroke-width="1" fill="none"></path></g></g><mask></mask><g stroke-linecap="round" transform="translate(616 10) rotate(0 52.5 42.5)"><path d="M0.67 1.6 C32.64 0.98, 68.19 1.58, 105.56 1.43 M0.67 -0.8 C29.84 1.05, 59.29 -0.14, 104.44 -0.37 M105.26 1.73 C104.74 21.73, 105.14 40.2, 104.82 84.88 M104.36 -0.38 C103.93 25.45, 105.14 51.36, 104.35 85.97 M106.59 84.28 C73.16 84.07, 43.44 85.01, 1.07 85.58 M105.81 84.56 C81.2 85.2, 58.69 84.48, 0.76 85.84 M-1.57 84.47 C-0.03 59.96, -1.49 35.02, -1.39 -0.5 M0.96 85.03 C-1.06 55.48, -0.88 25.22, 0.06 -0.34" stroke="#1e1e1e" stroke-width="1" fill="none"></path></g><g transform="translate(636.7000007629395 15) rotate(0 31.799999237060547 37.5)"><text x="31.799999237060547" y="0" font-family="Virgil, Segoe UI Emoji" font-size="20px" fill="#1e1e1e" text-anchor="middle" style="white-space: pre;" direction="ltr" dominant-baseline="text-before-edge">typed </text><text x="31.799999237060547" y="25" font-family="Virgil, Segoe UI Emoji" font-size="20px" fill="#1e1e1e" text-anchor="middle" style="white-space: pre;" direction="ltr" dominant-baseline="text-before-edge">parse </text><text x="31.799999237060547" y="50" font-family="Virgil, Segoe UI Emoji" font-size="20px" fill="#1e1e1e" text-anchor="middle" style="white-space: pre;" direction="ltr" dominant-baseline="text-before-edge">trees</text></g><g stroke-linecap="round"><g transform="translate(602.7696931433431 161) rotate(0 15.04751750601747 -28.06168625690043)"><path d="M1.01 -0.72 C7.05 -16.5, 19.96 -35.68, 29.01 -54.67 M-0.86 -0.72 C6.28 -13.13, 13.66 -25.22, 30.95 -55.4" stroke="#1e1e1e" stroke-width="1" fill="none"></path></g><g transform="translate(602.7696931433431 161) rotate(0 15.04751750601747 -28.06168625690043)"><path d="M26.76 -26.58 C25.2 -34.18, 30.42 -45.43, 29.09 -54.07 M24.89 -26.58 C26.54 -33.24, 28.23 -39.46, 31.03 -54.81" stroke="#1e1e1e" stroke-width="1" fill="none"></path></g><g transform="translate(602.7696931433431 161) rotate(0 15.04751750601747 -28.06168625690043)"><path d="M8.98 -36.84 C12.79 -41.54, 23.34 -49.72, 29.09 -54.07 M7.12 -36.84 C12.79 -41.13, 18.43 -45.08, 31.03 -54.81" stroke="#1e1e1e" stroke-width="1" fill="none"></path></g></g><mask></mask><g stroke-linecap="round"><g transform="translate(692.5015718256327 101) rotate(0 17.089369712285816 29.282328044064343)"><path d="M0.21 0.6 C7.58 19.79, 18.66 37.26, 33.97 58.83 M1 -0.26 C10.44 18.7, 20.15 36.94, 31.08 58.12" stroke="#1e1e1e" stroke-width="1" fill="none"></path></g><g transform="translate(692.5015718256327 101) rotate(0 17.089369712285816 29.282328044064343)"><path d="M9.19 38.42 C13.85 45.86, 21.84 51.59, 33.04 58.95 M9.98 37.56 C16.2 44.56, 22.75 50.79, 30.14 58.24" stroke="#1e1e1e" stroke-width="1" fill="none"></path></g><g transform="translate(692.5015718256327 101) rotate(0 17.089369712285816 29.282328044064343)"><path d="M27.41 28.97 C26.3 39.34, 28.61 48.01, 33.04 58.95 M28.2 28.11 C28.63 38.22, 29.38 47.46, 30.14 58.24" stroke="#1e1e1e" stroke-width="1" fill="none"></path></g></g><mask></mask><g stroke-linecap="round" transform="translate(846 23) rotate(0 52.5 30)"><path d="M-1.92 -0.75 C35.11 -0.63, 71.73 -1, 105.77 -1.12 M0.98 0.89 C26.43 0.36, 52.68 -0.08, 105.73 0.17 M103.58 1.64 C103.32 24.12, 104.38 46.74, 104.13 61.51 M105.62 -0.15 C105.42 15.22, 105.33 29.68, 105.87 59.52 M103.1 59.57 C74.1 58.55, 45.11 60.5, -0.69 60.83 M104.42 59.38 C68.34 59.59, 33.29 58.35, -0.18 60.25 M0.46 61.99 C1.19 44.43, -0.52 28.82, 1.41 -0.78 M-0.29 59.08 C0.21 44.16, -0.79 27.81, 0.56 0.98" stroke="#1e1e1e" stroke-width="1" fill="none"></path></g><g transform="translate(869.3333339691162 40.5) rotate(0 29.16666603088379 12.5)"><text x="29.16666603088379" y="0" font-family="Virgil, Segoe UI Emoji" font-size="20px" fill="#1e1e1e" text-anchor="middle" style="white-space: pre;" direction="ltr" dominant-baseline="text-before-edge">result</text></g><g stroke-linecap="round"><g transform="translate(800.4901092479254 156) rotate(0 22.865075502013724 -34.25120836881496)"><path d="M-1.33 -0.25 C12.51 -18.04, 21.13 -30.88, 47.06 -68.1 M-0.92 0.34 C10.29 -14.81, 20.91 -30.38, 45.77 -68.85" stroke="#1e1e1e" stroke-width="1" fill="none"></path></g><g transform="translate(800.4901092479254 156) rotate(0 22.865075502013724 -34.25120836881496)"><path d="M37.65 -39.87 C41.82 -48.56, 41.1 -52, 47.47 -68.94 M38.05 -39.28 C40.51 -45.58, 42.45 -52.42, 46.18 -69.69" stroke="#1e1e1e" stroke-width="1" fill="none"></path></g><g transform="translate(800.4901092479254 156) rotate(0 22.865075502013724 -34.25120836881496)"><path d="M20.45 -51.08 C28.7 -56.92, 32.14 -57.65, 47.47 -68.94 M20.86 -50.49 C27.16 -54.32, 32.97 -58.64, 46.18 -69.69" stroke="#1e1e1e" stroke-width="1" fill="none"></path></g></g><mask></mask><g stroke-linecap="round" transform="translate(452 364) rotate(0 52.5 26)"><path d="M-0.75 0.86 C39.12 -0.67, 79.3 -0.22, 103.09 -0.75 M-0.26 -0.55 C28.81 0.46, 59.1 -1.02, 104.55 0.7 M104.25 0.97 C105.76 10.06, 103.55 22.33, 104.6 50.33 M104.18 0.95 C104.05 19.45, 103.59 39.28, 104.66 51.26 M106.41 50.66 C66.41 53.26, 29.69 54.18, -0.47 53.4 M104.82 52.35 C69.57 51.24, 33.84 52.16, -0.35 52.99 M-0.04 51.28 C-2.31 39.97, -0.87 28.84, -1.06 -1.67 M-0.21 51.13 C-0.39 36.8, -0.45 23.18, 0.96 -0.08" stroke="#e03131" stroke-width="1" fill="none"></path></g><g transform="translate(479.3333339691162 377.5) rotate(0 25.16666603088379 12.5)"><text x="25.16666603088379" y="0" font-family="Virgil, Segoe UI Emoji" font-size="20px" fill="#e03131" text-anchor="middle" style="white-space: pre;" direction="ltr" dominant-baseline="text-before-edge">Error</text></g><g stroke-linecap="round"><g transform="translate(210.4733329937592 266) rotate(0 119.73928569617777 54.085815094627264)"><path d="M0.37 0.4 C84.79 37.82, 166.12 75.05, 239.11 107.77" stroke="#e03131" stroke-width="1.5" fill="none" stroke-dasharray="8 9"></path></g><g transform="translate(210.4733329937592 266) rotate(0 119.73928569617777 54.085815094627264)"><path d="M209.66 106.05 C221.11 106.81, 229.35 107.93, 237.96 108.92" stroke="#e03131" stroke-width="1.5" fill="none"></path></g><g transform="translate(210.4733329937592 266) rotate(0 119.73928569617777 54.085815094627264)"><path d="M218.09 87.34 C226.75 94.55, 232.06 102.14, 237.96 108.92" stroke="#e03131" stroke-width="1.5" fill="none"></path></g></g><mask></mask><g stroke-linecap="round"><g transform="translate(768.0530550212584 258) rotate(0 -130.89912092642214 48.99666384388229)"><path d="M-0.12 0.04 C-80.49 27.54, -163.17 58.06, -261.68 97.96" stroke="#e03131" stroke-width="1.5" fill="none" stroke-dasharray="8 9"></path></g><g transform="translate(768.0530550212584 258) rotate(0 -130.89912092642214 48.99666384388229)"><path d="M-239.4 78.09 C-244.68 82.33, -253.4 88.33, -260.36 96.6" stroke="#e03131" stroke-width="1.5" fill="none"></path></g><g transform="translate(768.0530550212584 258) rotate(0 -130.89912092642214 48.99666384388229)"><path d="M-231.85 97.17 C-239.37 95.44, -250.43 95.53, -260.36 96.6" stroke="#e03131" stroke-width="1.5" fill="none"></path></g></g><mask></mask><g stroke-linecap="round"><g transform="translate(388.6918775839148 260) rotate(0 56.396984490559646 51.82875541970134)"><path d="M-1.56 -0.89 C39.95 32.61, 76.41 67.33, 114.35 104.55" stroke="#e03131" stroke-width="1.5" fill="none" stroke-dasharray="8 9"></path></g><g transform="translate(388.6918775839148 260) rotate(0 56.396984490559646 51.82875541970134)"><path d="M85.41 91.42 C97.59 94.59, 104.53 98.67, 113.85 106.1" stroke="#e03131" stroke-width="1.5" fill="none"></path></g><g transform="translate(388.6918775839148 260) rotate(0 56.396984490559646 51.82875541970134)"><path d="M99.68 76.67 C107.01 84.87, 109.13 93.93, 113.85 106.1" stroke="#e03131" stroke-width="1.5" fill="none"></path></g></g><mask></mask><g stroke-linecap="round"><g transform="translate(573.0001119126189 259) rotate(0 -35.98801438546957 49.70100035145879)"><path d="M0.23 -1.66 C-28.92 38.83, -56.5 79.1, -72.21 101.06" stroke="#e03131" stroke-width="1.5" fill="none" stroke-dasharray="8 9"></path></g><g transform="translate(573.0001119126189 259) rotate(0 -35.98801438546957 49.70100035145879)"><path d="M-64.13 70.45 C-68.06 83.67, -70.55 96.34, -71.99 102.13" stroke="#e03131" stroke-width="1.5" fill="none"></path></g><g transform="translate(573.0001119126189 259) rotate(0 -35.98801438546957 49.70100035145879)"><path d="M-47.35 82.26 C-57.78 90.81, -66.78 98.89, -71.99 102.13" stroke="#e03131" stroke-width="1.5" fill="none"></path></g></g><mask></mask></svg>